# Blender v2.79 (sub 0) OBJ File: 'level 1.blend'
# www.blender.org
mtllib wall.mtl
o Plane_Plane.002
v -1.000000 0.000000 0.000000
v 1.000000 0.000000 0.000000
v -1.000000 3.000000 0.000000
v 1.000000 3.000000 0.000000
v -1.000000 0.000000 -0.333333
v 1.000000 0.000000 -0.333333
v -1.000000 3.000000 -0.333333
v 1.000000 3.000000 -0.333333
v 1.000000 0.750000 -0.333333
v 1.000000 0.750000 0.000000
v -1.000000 0.750000 0.000000
v -1.000000 0.750000 -0.333333
vt 0.666667 0.000000
vt 0.500000 0.000000
vt 0.500000 -1.125000
vt 0.666667 -1.125000
vt 0.000000 0.500000
vt 1.000000 0.500000
vt 1.000000 0.666667
vt 0.000000 0.666667
vt 0.000000 0.500000
vt 0.000000 0.666667
vt 1.000000 0.666667
vt 1.000000 0.500000
vt 0.000000 0.875000
vt 1.000000 0.875000
vt 1.000000 2.000000
vt 0.000000 2.000000
vt 0.000000 0.000000
vt 1.000000 0.000000
vt 1.000000 -1.125000
vt 0.000000 -1.125000
vt 0.500000 0.875000
vt 0.500000 2.000000
vt 0.666667 2.000000
vt 0.666667 0.875000
vt 0.666667 0.875000
vt 0.500000 0.875000
vt 0.500000 0.500000
vt 0.666667 0.500000
vt 0.000000 0.875000
vt 1.000000 0.875000
vt 1.000000 0.500000
vt 0.000000 0.500000
vt 0.500000 0.500000
vt 0.666667 0.500000
vn 1.0000 0.0000 0.0000
vn 0.0000 1.0000 0.0000
vn 0.0000 -1.0000 0.0000
vn 0.0000 0.0000 1.0000
vn -0.0000 0.0000 -1.0000
vn -1.0000 0.0000 0.0000
usemtl white
s off
f 8/1/1 4/2/1 10/3/1 9/4/1
f 3/5/2 4/6/2 8/7/2 7/8/2
f 1/9/3 5/10/3 6/11/3 2/12/3
f 11/13/4 10/14/4 4/15/4 3/16/4
f 7/17/5 8/18/5 9/19/5 12/20/5
f 11/21/6 3/22/6 7/23/6 12/24/6
usemtl blue
f 9/25/1 10/26/1 2/27/1 6/28/1
f 12/29/5 9/30/5 6/31/5 5/32/5
f 1/33/6 11/21/6 12/24/6 5/34/6
f 1/9/4 2/12/4 10/14/4 11/13/4
